<svg width="14" height="14" viewBox="0 0 14 14" fill="none" xmlns="http://www.w3.org/2000/svg">
<path d="M6.99984 13.6668C10.6817 13.6668 13.6665 10.6821 13.6665 7.00016C13.6665 3.31826 10.6817 0.333496 6.99984 0.333496C3.31794 0.333496 0.33317 3.31826 0.33317 7.00016C0.33317 8.06662 0.583581 9.07459 1.02881 9.96848C1.14713 10.206 1.18651 10.4775 1.11792 10.7339L0.720844 12.2179C0.548473 12.8622 1.13785 13.4515 1.78207 13.2792L3.26609 12.8821C3.52246 12.8135 3.79397 12.8529 4.03152 12.9712C4.92541 13.4164 5.93338 13.6668 6.99984 13.6668Z" fill="#191919"/>
<path d="M8.99984 7.00016C8.99984 7.36835 9.29831 7.66683 9.6665 7.66683C10.0347 7.66683 10.3332 7.36835 10.3332 7.00016C10.3332 6.63197 10.0347 6.3335 9.6665 6.3335C9.29831 6.3335 8.99984 6.63197 8.99984 7.00016Z" fill="white"/>
<path d="M6.33317 7.00016C6.33317 7.36835 6.63165 7.66683 6.99984 7.66683C7.36803 7.66683 7.6665 7.36835 7.6665 7.00016C7.6665 6.63197 7.36803 6.3335 6.99984 6.3335C6.63165 6.3335 6.33317 6.63197 6.33317 7.00016Z" fill="white"/>
<path d="M3.6665 7.00016C3.6665 7.36835 3.96498 7.66683 4.33317 7.66683C4.70136 7.66683 4.99984 7.36835 4.99984 7.00016C4.99984 6.63197 4.70136 6.3335 4.33317 6.3335C3.96498 6.3335 3.6665 6.63197 3.6665 7.00016Z" fill="white"/>
</svg>
