<svg width="81" height="77" viewBox="0 0 81 77" fill="none" xmlns="http://www.w3.org/2000/svg">
<path fill-rule="evenodd" clip-rule="evenodd" d="M2.70447 12.2267C12.8776 44.2171 44.9027 55.3066 76.1996 53.883C76.7372 53.8595 77.1949 54.2759 77.2183 54.8135C77.2417 55.3511 76.8254 55.8087 76.2878 55.8322C44.1145 57.2974 11.3028 45.7033 0.845235 12.8165C0.681279 12.3045 0.965511 11.7563 1.47995 11.5919C1.99196 11.428 2.54012 11.7122 2.70447 12.2267Z" fill="white"/>
<path fill-rule="evenodd" clip-rule="evenodd" d="M75.6562 54.8849C74.1268 54.1107 72.1966 53.1602 71.9807 53.046C66.1301 49.95 61.0733 46.1124 56.4023 41.403C56.0227 41.0212 56.0258 40.4019 56.4076 40.0223C56.7894 39.6427 57.4086 39.6458 57.7882 40.0276C62.3163 44.5958 67.2195 48.319 72.895 51.3214C73.2257 51.4966 77.566 53.6305 78.4112 54.1279C78.7589 54.3303 78.8927 54.5529 78.9193 54.6084C79.0716 54.8977 79.0504 55.1482 78.9965 55.3367C78.9341 55.5491 78.7456 55.8745 78.3128 56.0953C77.8589 56.3246 76.8059 56.5674 76.545 56.6502C72.6126 57.91 68.1139 58.9734 64.1599 60.8006C60.389 62.5429 57.1096 64.9829 55.4207 69.0704C55.2156 69.5681 54.6431 69.8044 54.1453 69.5993C53.6475 69.3941 53.4112 68.8216 53.6163 68.3238C55.5055 63.7543 59.1262 60.9763 63.34 59.029C67.2709 57.2131 71.7234 56.1273 75.6562 54.8849Z" fill="white"/>
</svg>
