<svg width="81" height="77" viewBox="0 0 81 77" fill="none" xmlns="http://www.w3.org/2000/svg">
<path fill-rule="evenodd" clip-rule="evenodd" d="M78.4572 64.9345C68.284 32.9441 36.259 21.8546 4.96204 23.2782C4.42445 23.3016 3.96676 22.8852 3.94332 22.3476C3.91988 21.81 4.33622 21.3524 4.87381 21.329C37.0471 19.8637 69.8588 31.4578 80.3164 64.3446C80.4803 64.8566 80.1961 65.4048 79.6817 65.5692C79.1697 65.7332 78.6215 65.4489 78.4572 64.9345Z" fill="white"/>
<path fill-rule="evenodd" clip-rule="evenodd" d="M5.50539 22.2762C7.03483 23.0505 8.965 24.0009 9.18088 24.1152C15.0315 27.2111 20.0883 31.0487 24.7593 35.7582C25.1389 36.1399 25.1358 36.7593 24.754 37.1388C24.3723 37.5184 23.753 37.5153 23.3734 37.1336C18.8454 32.5653 13.9422 28.8422 8.26658 25.8397C7.93589 25.6645 3.59559 23.5306 2.75037 23.0332C2.40274 22.8308 2.26894 22.6083 2.24235 22.5528C2.09002 22.2634 2.11123 22.0129 2.1651 21.8244C2.22753 21.612 2.41603 21.2866 2.84884 21.0658C3.30272 20.8366 4.35573 20.5937 4.61659 20.5109C8.54904 19.2511 13.0477 18.1877 17.0017 16.3605C20.7726 14.6182 24.052 12.1783 25.7409 8.09078C25.946 7.59298 26.5185 7.35671 27.0163 7.56187C27.5141 7.76703 27.7504 8.3395 27.5453 8.8373C25.6561 13.4068 22.0354 16.1849 17.8216 18.1321C13.8907 19.9481 9.4382 21.0338 5.50539 22.2762Z" fill="white"/>
</svg>
