<svg width="14" height="14" viewBox="0 0 14 14" fill="none" xmlns="http://www.w3.org/2000/svg">
<path d="M5.10227 2.60575C5.94671 1.09091 6.36892 0.333496 7.00016 0.333496C7.6314 0.333496 8.05362 1.09091 8.89805 2.60575L9.11652 2.99765C9.35648 3.42812 9.47646 3.64335 9.66353 3.78537C9.85061 3.92738 10.0836 3.9801 10.5496 4.08553L10.9738 4.18152C12.6136 4.55253 13.4335 4.73804 13.6285 5.36532C13.8236 5.99259 13.2647 6.64621 12.1468 7.95345L11.8576 8.29164C11.5399 8.66312 11.381 8.84886 11.3096 9.07864C11.2381 9.30842 11.2621 9.55624 11.3102 10.0519L11.3539 10.5031C11.5229 12.2472 11.6074 13.1193 11.0967 13.507C10.586 13.8947 9.81838 13.5412 8.28305 12.8343L7.88584 12.6514C7.44955 12.4505 7.2314 12.3501 7.00016 12.3501C6.76893 12.3501 6.55078 12.4505 6.11449 12.6514L5.71728 12.8343C4.18195 13.5412 3.41428 13.8947 2.90359 13.507C2.39291 13.1193 2.47742 12.2472 2.64643 10.5031L2.69015 10.0519C2.73818 9.55624 2.76219 9.30842 2.69074 9.07864C2.61928 8.84886 2.46045 8.66312 2.14278 8.29164L1.85356 7.95345C0.735662 6.64621 0.176712 5.99259 0.371777 5.36532C0.566841 4.73804 1.38673 4.55253 3.02652 4.18152L3.45075 4.08553C3.91673 3.9801 4.14972 3.92738 4.33679 3.78537C4.52387 3.64335 4.64385 3.42812 4.88381 2.99765L5.10227 2.60575Z" fill="#191919"/>
</svg>
